%
M48
M72
T01C0.01378
T02C0.03200
T03C0.03543
T04C0.04000
T05C0.04400
T06C0.11811
T07C0.13000
%
T01
X71800Y201800
X71800Y226800
X51800Y216800
X61800Y276800
T02
X61800Y201800
X61800Y191800
X61800Y181800
X61800Y171800
X61800Y161800
X61800Y151800
X61800Y141800
X61800Y131800
X61800Y121800
X61800Y111800
X61800Y101800
X61800Y91800
X61800Y81800
X61800Y71800
X61800Y61800
X61800Y51800
X61800Y41800
X61800Y31800
X61800Y21800
X61800Y11800
X121800Y11800
X121800Y21800
X121800Y31800
X121800Y41800
X121800Y51800
X121800Y61800
X121800Y71800
X121800Y81800
X121800Y91800
X121800Y101800
X121800Y111800
X121800Y121800
X121800Y131800
X121800Y141800
X121800Y151800
X121800Y161800
X121800Y171800
X121800Y181800
X121800Y191800
X121800Y201800
T03
X81800Y241800
X81800Y251800
X51800Y251800
X51800Y241800
T04
X11800Y11800
X11800Y21800
X11800Y31800
X11800Y41800
X11800Y51800
X11800Y61800
X11800Y71800
X11800Y81800
X11800Y91800
X11800Y101800
X11800Y111800
X11800Y121800
X11800Y131800
X11800Y141800
X11800Y151800
X11800Y161800
X11800Y171800
X11800Y181800
X11800Y191800
X11800Y201800
X11800Y211800
X11800Y221800
X11800Y231800
X11800Y241800
X11800Y251800
X11800Y261800
X11800Y271800
X11800Y281800
X11800Y291800
X11800Y301800
X26800Y271800
X26800Y261800
X26800Y251800
X31800Y201800
X31800Y191800
X31800Y181800
X31800Y171800
X31800Y161800
X31800Y151800
X31800Y141800
X41800Y141800
X41800Y151800
X41800Y161800
X41800Y171800
X41800Y181800
X41800Y191800
X41800Y201800
X106800Y236800
X116800Y236800
X126800Y236800
X151800Y236800
X161800Y236800
X171800Y236800
X156800Y201800
X156800Y191800
X156800Y181800
X156800Y171800
X151800Y131800
X151800Y121800
X151800Y111800
X151800Y101800
X151800Y91800
X161800Y91800
X161800Y101800
X161800Y111800
X161800Y121800
X161800Y131800
X161800Y51800
X161800Y41800
X161800Y31800
X161800Y21800
X161800Y11800
X151800Y11800
X151800Y21800
X151800Y31800
X151800Y41800
X151800Y51800
T05
X106800Y276800
X106800Y286800
X106800Y296800
T06
X143690Y277036
X162194Y288454
X162194Y265225
T07
X47800Y286800
M30
