G75*
%MOIN*%
%OFA0B0*%
%FSLAX25Y25*%
%IPPOS*%
%LPD*%
%AMOC8*
5,1,8,0,0,1.08239X$1,22.5*
%
%ADD10C,0.00000*%
%ADD11C,0.00600*%
D10*
X0001800Y0001800D02*
X0001800Y0316761D01*
X0180501Y0316761D01*
X0180501Y0001800D01*
X0001800Y0001800D01*
X0041300Y0286800D02*
X0041302Y0286961D01*
X0041308Y0287121D01*
X0041318Y0287282D01*
X0041332Y0287442D01*
X0041350Y0287602D01*
X0041371Y0287761D01*
X0041397Y0287920D01*
X0041427Y0288078D01*
X0041460Y0288235D01*
X0041498Y0288392D01*
X0041539Y0288547D01*
X0041584Y0288701D01*
X0041633Y0288854D01*
X0041686Y0289006D01*
X0041742Y0289157D01*
X0041803Y0289306D01*
X0041866Y0289454D01*
X0041934Y0289600D01*
X0042005Y0289744D01*
X0042079Y0289886D01*
X0042157Y0290027D01*
X0042239Y0290165D01*
X0042324Y0290302D01*
X0042412Y0290436D01*
X0042504Y0290568D01*
X0042599Y0290698D01*
X0042697Y0290826D01*
X0042798Y0290951D01*
X0042902Y0291073D01*
X0043009Y0291193D01*
X0043119Y0291310D01*
X0043232Y0291425D01*
X0043348Y0291536D01*
X0043467Y0291645D01*
X0043588Y0291750D01*
X0043712Y0291853D01*
X0043838Y0291953D01*
X0043966Y0292049D01*
X0044097Y0292142D01*
X0044231Y0292232D01*
X0044366Y0292319D01*
X0044504Y0292402D01*
X0044643Y0292482D01*
X0044785Y0292558D01*
X0044928Y0292631D01*
X0045073Y0292700D01*
X0045220Y0292766D01*
X0045368Y0292828D01*
X0045518Y0292886D01*
X0045669Y0292941D01*
X0045822Y0292992D01*
X0045976Y0293039D01*
X0046131Y0293082D01*
X0046287Y0293121D01*
X0046443Y0293157D01*
X0046601Y0293188D01*
X0046759Y0293216D01*
X0046918Y0293240D01*
X0047078Y0293260D01*
X0047238Y0293276D01*
X0047398Y0293288D01*
X0047559Y0293296D01*
X0047720Y0293300D01*
X0047880Y0293300D01*
X0048041Y0293296D01*
X0048202Y0293288D01*
X0048362Y0293276D01*
X0048522Y0293260D01*
X0048682Y0293240D01*
X0048841Y0293216D01*
X0048999Y0293188D01*
X0049157Y0293157D01*
X0049313Y0293121D01*
X0049469Y0293082D01*
X0049624Y0293039D01*
X0049778Y0292992D01*
X0049931Y0292941D01*
X0050082Y0292886D01*
X0050232Y0292828D01*
X0050380Y0292766D01*
X0050527Y0292700D01*
X0050672Y0292631D01*
X0050815Y0292558D01*
X0050957Y0292482D01*
X0051096Y0292402D01*
X0051234Y0292319D01*
X0051369Y0292232D01*
X0051503Y0292142D01*
X0051634Y0292049D01*
X0051762Y0291953D01*
X0051888Y0291853D01*
X0052012Y0291750D01*
X0052133Y0291645D01*
X0052252Y0291536D01*
X0052368Y0291425D01*
X0052481Y0291310D01*
X0052591Y0291193D01*
X0052698Y0291073D01*
X0052802Y0290951D01*
X0052903Y0290826D01*
X0053001Y0290698D01*
X0053096Y0290568D01*
X0053188Y0290436D01*
X0053276Y0290302D01*
X0053361Y0290165D01*
X0053443Y0290027D01*
X0053521Y0289886D01*
X0053595Y0289744D01*
X0053666Y0289600D01*
X0053734Y0289454D01*
X0053797Y0289306D01*
X0053858Y0289157D01*
X0053914Y0289006D01*
X0053967Y0288854D01*
X0054016Y0288701D01*
X0054061Y0288547D01*
X0054102Y0288392D01*
X0054140Y0288235D01*
X0054173Y0288078D01*
X0054203Y0287920D01*
X0054229Y0287761D01*
X0054250Y0287602D01*
X0054268Y0287442D01*
X0054282Y0287282D01*
X0054292Y0287121D01*
X0054298Y0286961D01*
X0054300Y0286800D01*
X0054298Y0286639D01*
X0054292Y0286479D01*
X0054282Y0286318D01*
X0054268Y0286158D01*
X0054250Y0285998D01*
X0054229Y0285839D01*
X0054203Y0285680D01*
X0054173Y0285522D01*
X0054140Y0285365D01*
X0054102Y0285208D01*
X0054061Y0285053D01*
X0054016Y0284899D01*
X0053967Y0284746D01*
X0053914Y0284594D01*
X0053858Y0284443D01*
X0053797Y0284294D01*
X0053734Y0284146D01*
X0053666Y0284000D01*
X0053595Y0283856D01*
X0053521Y0283714D01*
X0053443Y0283573D01*
X0053361Y0283435D01*
X0053276Y0283298D01*
X0053188Y0283164D01*
X0053096Y0283032D01*
X0053001Y0282902D01*
X0052903Y0282774D01*
X0052802Y0282649D01*
X0052698Y0282527D01*
X0052591Y0282407D01*
X0052481Y0282290D01*
X0052368Y0282175D01*
X0052252Y0282064D01*
X0052133Y0281955D01*
X0052012Y0281850D01*
X0051888Y0281747D01*
X0051762Y0281647D01*
X0051634Y0281551D01*
X0051503Y0281458D01*
X0051369Y0281368D01*
X0051234Y0281281D01*
X0051096Y0281198D01*
X0050957Y0281118D01*
X0050815Y0281042D01*
X0050672Y0280969D01*
X0050527Y0280900D01*
X0050380Y0280834D01*
X0050232Y0280772D01*
X0050082Y0280714D01*
X0049931Y0280659D01*
X0049778Y0280608D01*
X0049624Y0280561D01*
X0049469Y0280518D01*
X0049313Y0280479D01*
X0049157Y0280443D01*
X0048999Y0280412D01*
X0048841Y0280384D01*
X0048682Y0280360D01*
X0048522Y0280340D01*
X0048362Y0280324D01*
X0048202Y0280312D01*
X0048041Y0280304D01*
X0047880Y0280300D01*
X0047720Y0280300D01*
X0047559Y0280304D01*
X0047398Y0280312D01*
X0047238Y0280324D01*
X0047078Y0280340D01*
X0046918Y0280360D01*
X0046759Y0280384D01*
X0046601Y0280412D01*
X0046443Y0280443D01*
X0046287Y0280479D01*
X0046131Y0280518D01*
X0045976Y0280561D01*
X0045822Y0280608D01*
X0045669Y0280659D01*
X0045518Y0280714D01*
X0045368Y0280772D01*
X0045220Y0280834D01*
X0045073Y0280900D01*
X0044928Y0280969D01*
X0044785Y0281042D01*
X0044643Y0281118D01*
X0044504Y0281198D01*
X0044366Y0281281D01*
X0044231Y0281368D01*
X0044097Y0281458D01*
X0043966Y0281551D01*
X0043838Y0281647D01*
X0043712Y0281747D01*
X0043588Y0281850D01*
X0043467Y0281955D01*
X0043348Y0282064D01*
X0043232Y0282175D01*
X0043119Y0282290D01*
X0043009Y0282407D01*
X0042902Y0282527D01*
X0042798Y0282649D01*
X0042697Y0282774D01*
X0042599Y0282902D01*
X0042504Y0283032D01*
X0042412Y0283164D01*
X0042324Y0283298D01*
X0042239Y0283435D01*
X0042157Y0283573D01*
X0042079Y0283714D01*
X0042005Y0283856D01*
X0041934Y0284000D01*
X0041866Y0284146D01*
X0041803Y0284294D01*
X0041742Y0284443D01*
X0041686Y0284594D01*
X0041633Y0284746D01*
X0041584Y0284899D01*
X0041539Y0285053D01*
X0041498Y0285208D01*
X0041460Y0285365D01*
X0041427Y0285522D01*
X0041397Y0285680D01*
X0041371Y0285839D01*
X0041350Y0285998D01*
X0041332Y0286158D01*
X0041318Y0286318D01*
X0041308Y0286479D01*
X0041302Y0286639D01*
X0041300Y0286800D01*
D11*
X0044300Y0206800D02*
X0029300Y0206800D01*
X0026800Y0204300D01*
X0026800Y0199300D01*
X0029300Y0196800D01*
X0044300Y0196800D01*
X0046800Y0199300D01*
X0046800Y0204300D01*
X0044300Y0206800D01*
X0044300Y0196800D02*
X0046800Y0194300D01*
X0046800Y0189300D01*
X0044300Y0186800D01*
X0029300Y0186800D01*
X0026800Y0189300D01*
X0026800Y0194300D01*
X0029300Y0196800D01*
X0029300Y0186800D02*
X0026800Y0184300D01*
X0026800Y0179300D01*
X0029300Y0176800D01*
X0044300Y0176800D01*
X0046800Y0179300D01*
X0046800Y0184300D01*
X0044300Y0186800D01*
X0044300Y0176800D02*
X0046800Y0174300D01*
X0046800Y0169300D01*
X0044300Y0166800D01*
X0029300Y0166800D01*
X0026800Y0169300D01*
X0026800Y0174300D01*
X0029300Y0176800D01*
X0029300Y0166800D02*
X0026800Y0164300D01*
X0026800Y0159300D01*
X0029300Y0156800D01*
X0044300Y0156800D01*
X0046800Y0159300D01*
X0046800Y0164300D01*
X0044300Y0166800D01*
X0044300Y0156800D02*
X0046800Y0154300D01*
X0046800Y0149300D01*
X0044300Y0146800D01*
X0029300Y0146800D01*
X0026800Y0149300D01*
X0026800Y0154300D01*
X0029300Y0156800D01*
X0029300Y0146800D02*
X0026800Y0144300D01*
X0026800Y0139300D01*
X0029300Y0136800D01*
X0044300Y0136800D01*
X0046800Y0139300D01*
X0046800Y0144300D01*
X0044300Y0146800D01*
M02*
